<svg width="62" height="51" viewBox="0 0 62 51" fill="none" xmlns="http://www.w3.org/2000/svg">
<path opacity="0.93" d="M11.977 28.2887V21.4956L16.8301 18.918V27.399" stroke="#27AAE1" stroke-miterlimit="10"/>
<path opacity="0.93" d="M20.113 26.5534V16.6604L25.0834 13.9868V26.1771" stroke="#27AAE1" stroke-miterlimit="10"/>
<path opacity="0.93" d="M28.0659 26.0846V12.3701L33.0925 9.86182V26.0846" stroke="#27AAE1" stroke-miterlimit="10"/>
<path opacity="0.93" d="M36.3081 26.0844V7.93904L41.2785 5.45435V26.5536" stroke="#27AAE1" stroke-miterlimit="10"/>
<path opacity="0.93" d="M44.2595 27.5658V3.65142L49.2877 1V28.2888" stroke="#27AAE1" stroke-miterlimit="10"/>
<path d="M5 30.2453C9.11488 28.6799 13.4253 27.5629 17.806 26.8001C22.1899 26.0462 26.652 25.6743 31.1125 25.6714C33.3428 25.6832 35.5746 25.7629 37.7955 25.9517C40.0163 26.1465 42.2278 26.4239 44.419 26.8016C48.8013 27.557 53.1086 28.6843 57.225 30.2453C52.9287 29.214 48.6074 28.373 44.2454 27.8329C42.0652 27.56 39.8803 27.3505 37.6907 27.2074L36.0469 27.1159C35.4995 27.0849 34.9506 27.076 34.4016 27.0554L33.5789 27.0259L32.7563 27.0155C32.2073 27.0111 31.6599 26.9949 31.1109 27.0008C26.7224 27.0037 22.3354 27.2782 17.9765 27.83C13.6176 28.3744 9.29474 29.2066 5 30.2453Z" fill="#414042"/>
<path d="M0.685313 38.8074V37.6988H8.42531V38.8074H5.18016V48.0188H3.93047V38.8074H0.685313ZM9.5717 48.0188H8.26154L12.0509 37.6988H13.3409L17.1303 48.0188H15.8201L12.7362 39.3315H12.6556L9.5717 48.0188ZM10.0554 43.9875H15.3364V45.0961H10.0554V43.9875ZM18.7378 37.6988H20.2293L23.7365 46.2652H23.8574L27.3646 37.6988H28.8562V48.0188H27.6871V40.178H27.5863L24.3613 48.0188H23.2326L20.0076 40.178H19.9068V48.0188H18.7378V37.6988ZM43.3347 48.0188V37.6988H49.563V38.8074H44.5844V42.2944H49.2405V43.403H44.5844V46.9102H49.6436V48.0188H43.3347ZM59.9989 37.6988V48.0188H58.7895L53.1659 39.916H53.0651V48.0188H51.8154V37.6988H53.0248L58.6685 45.8218H58.7693V37.6988H59.9989Z" fill="#414042"/>
<path opacity="0.81" d="M39.2069 37.7925L41.5458 38.2669C41.4385 38.8204 41.0299 40.4018 39.2069 41.657C38.2981 42.2821 37.3525 42.6132 36.6951 42.7911C37.4128 42.9616 39.2252 43.4707 40.6213 44.8297C41.5746 45.7587 41.9309 46.6903 42.0775 47.2264C41.1818 47.2264 40.2834 47.2264 39.3876 47.2264C39.186 46.6557 38.6674 45.4993 37.2949 44.417C36.0665 43.4509 34.7334 42.9962 34 42.7911C34.681 42.6009 36.3101 42.0672 37.6145 40.7872C38.856 39.5715 39.131 38.3311 39.2069 37.7925Z" fill="#27AAE1" stroke="#27AAE1" stroke-miterlimit="10"/>
<path d="M36.53 48.0188H29.465V47.7788C29.535 47.7788 29.63 47.7788 29.75 47.7788C29.87 47.7688 30.065 47.7488 30.335 47.7188C30.615 47.6788 30.81 47.5938 30.92 47.4638C31.04 47.3338 31.115 47.1138 31.145 46.8038L31.175 46.1138V38.9888L31.145 38.2988C31.115 37.9788 31.045 37.7588 30.935 37.6388C30.835 37.5088 30.63 37.4238 30.32 37.3838L29.51 37.3238V37.0838H36.53V37.3238L35.72 37.3688C35.41 37.3988 35.2 37.4738 35.09 37.5938C34.99 37.7038 34.925 37.9288 34.895 38.2688L34.865 38.9588V46.1438L34.895 46.8338C34.925 47.1638 34.995 47.3888 35.105 47.5088C35.225 47.6188 35.44 47.6938 35.75 47.7338L36.53 47.7788V48.0188Z" fill="#414042"/>
</svg>
