<svg width="46" height="20" viewBox="0 0 46 20" fill="none" xmlns="http://www.w3.org/2000/svg">
<path d="M8.40794 2.88016C7.86744 3.52416 7.00638 4.03448 6.14675 3.95973C6.03319 3.09148 6.46157 2.16141 6.95607 1.58498C7.49513 0.928038 8.43813 0.456537 9.20288 0.417725C9.29344 1.32479 8.93982 2.21604 8.40938 2.88016H8.40794ZM9.19425 4.13079C7.94507 4.0546 6.87269 4.8481 6.28044 4.8481C5.67525 4.8481 4.76819 4.16816 3.78063 4.19116C2.49982 4.20697 1.30238 4.93866 0.651191 6.11598C-0.704371 8.45766 0.299004 11.9249 1.60138 13.8339C2.23819 14.7769 3.00007 15.8105 4.00488 15.7817C4.95507 15.7429 5.33744 15.1535 6.48313 15.1535C7.64319 15.1535 7.97238 15.7817 8.98438 15.7587C10.0237 15.7429 10.6821 14.8157 11.3189 13.8727C12.0448 12.8018 12.3438 11.7524 12.3596 11.7007C12.3438 11.6777 10.3457 10.9072 10.3313 8.5856C10.3155 6.63779 11.9025 5.7106 11.9701 5.65741C11.0788 4.31048 9.6715 4.16816 9.19282 4.13223L9.19425 4.13079ZM16.4048 1.49441V15.661H18.5826V10.818H21.5941C24.3412 10.818 26.2732 8.90904 26.2732 6.15335C26.2732 3.39191 24.38 1.49585 21.6689 1.49585L16.4048 1.49441ZM18.5826 3.35166H21.091C22.977 3.35166 24.0566 4.36941 24.0566 6.1591C24.0566 7.94879 22.977 8.97516 21.0766 8.97516H18.5826V3.35166ZM30.2393 15.7659C31.6092 15.7659 32.8742 15.0702 33.4521 13.9604H33.4981V15.661H35.5106V8.60716C35.5106 6.57166 33.8948 5.24773 31.4008 5.24773C29.095 5.24773 27.3873 6.58748 27.3283 8.42173H29.2819C29.4472 7.54629 30.2407 6.97704 31.3418 6.97704C32.6744 6.97704 33.4161 7.60523 33.4161 8.75954V9.53723L30.7064 9.70254C28.175 9.85923 26.8123 10.9 26.8123 12.7199C26.8123 14.5541 28.221 15.7673 30.2407 15.7673L30.2393 15.7659ZM30.8315 14.0884C29.67 14.0884 28.9297 13.5263 28.9297 12.6667C28.9297 11.7754 29.6413 11.2507 30.9954 11.1674L33.4147 11.0179V11.8185C33.4147 13.1453 32.2992 14.0884 30.8229 14.0884H30.8315ZM38.1987 19.5164C40.3161 19.5164 41.3138 18.6927 42.182 16.2144L46 5.3886H43.792L41.2318 13.7505H41.1858L38.6256 5.3886H36.3501L40.0344 15.6984L39.8389 16.3265C39.5011 17.3831 38.9634 17.7928 38.0046 17.7928C37.8321 17.7928 37.5029 17.7712 37.3678 17.7568V19.4574C37.4943 19.4934 38.0348 19.5092 38.1915 19.5092L38.1987 19.5164Z" fill="white"/>
</svg>
