<svg width="46" height="18" viewBox="0 0 46 18" fill="none" xmlns="http://www.w3.org/2000/svg">
<path d="M45.9999 3.83415L39.9954 17.2503H38.1382L40.3692 12.5555L36.416 3.83271H38.3696L41.2302 10.5185H41.2676L44.0377 3.83271L45.9999 3.83415ZM21.0535 7.98278V13.418H19.166V0.00177753H24.1599C25.3454 -0.0307177 26.4997 0.383322 27.3943 1.16184C28.2784 1.88778 28.7642 2.91415 28.7499 3.99946C28.7559 4.54565 28.637 5.08598 28.402 5.57908C28.167 6.07217 27.8223 6.50496 27.3943 6.84428C26.526 7.60759 25.4479 7.98278 24.1599 7.98278H21.0535ZM21.0463 1.65634V6.3354H24.2059C24.8938 6.36007 25.5637 6.11268 26.0704 5.64684C26.5577 5.21272 26.8265 4.62047 26.8265 4.00665C26.8265 3.38565 26.5562 2.7934 26.0704 2.36647C25.8222 2.13028 25.5296 1.94575 25.2095 1.8236C24.8895 1.70145 24.5483 1.6441 24.2059 1.6549L21.0463 1.65634ZM32.5305 3.83415C33.7279 3.83415 34.6795 4.17053 35.3753 4.83753C36.071 5.50453 36.416 6.41734 36.416 7.5774V13.1247H34.8592V11.8741H34.7917C34.1175 12.9005 33.2262 13.4165 32.1107 13.4165C31.1519 13.4165 30.3584 13.1247 29.7144 12.5325C29.4037 12.2574 29.1564 11.9182 28.9896 11.5382C28.8228 11.1582 28.7405 10.7466 28.7484 10.3317C28.7484 9.40303 29.0848 8.66271 29.7662 8.10784C30.4404 7.56159 31.346 7.28415 32.4759 7.28415C33.4419 7.28415 34.2354 7.47103 34.8564 7.83759V7.44803C34.8584 7.16524 34.7999 6.88529 34.6849 6.62695C34.5698 6.36861 34.4009 6.13786 34.1894 5.95015C33.7633 5.55135 33.2003 5.33159 32.6167 5.33634C31.7111 5.33634 30.9924 5.73309 30.4605 6.52659L29.0302 5.59797C29.8165 4.42209 30.9837 3.83128 32.5262 3.83128L32.5305 3.83415ZM30.4274 10.3705C30.4242 10.5835 30.4714 10.7943 30.565 10.9856C30.6587 11.177 30.7963 11.3435 30.9665 11.4716C31.3259 11.7634 31.7758 11.9215 32.2315 11.9129C32.9129 11.9129 33.5712 11.6283 34.0585 11.1266C34.5746 10.6479 34.8679 9.97372 34.8679 9.26934C34.359 8.84959 33.6546 8.63972 32.749 8.63972C32.082 8.63972 31.5357 8.80503 31.0944 9.13422C30.6531 9.47059 30.4274 9.87597 30.4274 10.369V10.3705ZM7.82417 0.00177753C9.75962 -0.0215657 11.6312 0.693462 13.0581 2.00134L10.8271 4.18778C10.0121 3.43165 8.9357 3.02097 7.82417 3.04209C6.85419 3.04684 5.90978 3.35367 5.12222 3.91992C4.33467 4.48618 3.7431 5.28373 3.42973 6.20171C3.10047 7.15247 3.10047 8.18633 3.42973 9.13709C3.7431 10.0551 4.33467 10.8526 5.12222 11.4189C5.90978 11.9851 6.85419 12.292 7.82417 12.2967C8.8793 12.2967 9.78636 12.0351 10.4893 11.5708C10.8937 11.3074 11.2403 10.9645 11.5079 10.5629C11.7756 10.1613 11.9587 9.70946 12.0461 9.23484H7.82273V6.28509H15.1971C15.2877 6.80115 15.3322 7.31865 15.3322 7.8419C15.3322 10.1778 14.4784 12.1544 13.0035 13.487C11.7083 14.6557 9.93442 15.3356 7.82273 15.3356C6.38136 15.3429 4.96589 14.9526 3.73205 14.2074C2.4982 13.4623 1.49378 12.3913 0.829296 11.1122C0.282973 10.0463 -0.00195313 8.86573 -0.00195312 7.66796C-0.00195313 6.4702 0.282973 5.28962 0.829296 4.22372C1.49298 2.94583 2.49602 1.87558 3.72823 1.13052C4.96045 0.385464 6.37417 -0.00558058 7.81411 0.000340821L7.82417 0.00177753Z" fill="white"/>
</svg>
