<svg width="107" height="105" viewBox="0 0 107 105" fill="none" xmlns="http://www.w3.org/2000/svg">
<path opacity="0.93" d="M14.2946 57.9101V43.9923L24.2377 38.7112V56.0873" stroke="#27AAE1" stroke-width="2" stroke-miterlimit="10"/>
<path opacity="0.93" d="M30.9638 54.3546V34.0856L41.1473 28.6079V53.5838" stroke="#27AAE1" stroke-width="2" stroke-miterlimit="10"/>
<path opacity="0.93" d="M47.2579 53.3939V25.2953L57.5567 20.1562V53.3939" stroke="#27AAE1" stroke-width="2" stroke-miterlimit="10"/>
<path opacity="0.93" d="M64.1448 53.3938V16.2172L74.3283 11.1265V54.3551" stroke="#27AAE1" stroke-width="2" stroke-miterlimit="10"/>
<path opacity="0.93" d="M80.4358 56.4288V7.4323L90.7378 2V57.91" stroke="#27AAE1" stroke-width="2" stroke-miterlimit="10"/>
<path d="M0 61.9186C8.43067 58.7112 17.2619 56.4228 26.2373 54.8599C35.2191 53.3152 44.3612 52.5534 53.5 52.5474C58.0694 52.5715 62.642 52.7348 67.1922 53.1217C71.7424 53.5208 76.2734 54.0891 80.7627 54.863C89.7413 56.4107 98.5661 58.7203 107 61.9186C98.1976 59.8055 89.344 58.0824 80.407 56.976C75.9401 56.4168 71.4637 55.9875 66.9775 55.6943L63.6098 55.5069C62.4882 55.4434 61.3635 55.4252 60.2388 55.3829L58.5533 55.3225L56.8678 55.3013C55.7431 55.2922 54.6215 55.259 53.4968 55.2711C44.5054 55.2771 35.5171 55.8394 26.5866 56.97C17.656 58.0855 8.79917 59.7904 0 61.9186Z" fill="white"/>
<path d="M8.39896 75.1928V73.6935H18.8662V75.1928H14.4776V87.6499H12.7876V75.1928H8.39896ZM20.4166 87.6499H18.6448L23.7694 73.6935H25.5139L30.6385 87.6499H28.8667L24.6961 75.9015H24.5871L20.4166 87.6499ZM21.0708 82.1982H28.2125V83.6974H21.0708V82.1982ZM32.8124 73.6935H34.8295L39.5725 85.2784H39.736L44.479 73.6935H46.4962V87.6499H44.9152V77.0463H44.7789L40.4175 87.6499H38.891L34.5297 77.0463H34.3934V87.6499H32.8124V73.6935ZM71.4735 87.6499V73.6935H79.8964V75.1928H73.1635V79.9085H79.4602V81.4077H73.1635V86.1507H80.0054V87.6499H71.4735ZM94.0095 73.6935V87.6499H92.374L84.7688 76.692H84.6325V87.6499H82.9425V73.6935H84.578L92.2104 84.6787H92.3467V73.6935H94.0095Z" fill="white"/>
<path opacity="0.81" d="M63.4221 74.4834L66.3218 75.1128C66.1887 75.8472 65.6821 77.9453 63.4221 79.6107C62.2953 80.4401 61.1231 80.8794 60.308 81.1154C61.1977 81.3416 63.4448 82.017 65.1756 83.82C66.3576 85.0527 66.7992 86.2886 66.981 87C65.8705 87 64.7567 87 63.6461 87C63.3961 86.2427 62.7532 84.7085 61.0516 83.2726C59.5287 81.9907 57.8758 81.3875 56.9666 81.1154C57.8109 80.863 59.8307 80.1549 61.4478 78.4567C62.987 76.8438 63.3279 75.1981 63.4221 74.4834Z" fill="#27AAE1" stroke="#27AAE1" stroke-width="2" stroke-miterlimit="10"/>
<path d="M57.538 88H48.589V87.696C48.6777 87.696 48.798 87.696 48.95 87.696C49.102 87.6833 49.349 87.658 49.691 87.62C50.0457 87.5693 50.2927 87.4617 50.432 87.297C50.584 87.1323 50.679 86.8537 50.717 86.461L50.755 85.587V76.562L50.717 75.688C50.679 75.2827 50.5903 75.004 50.451 74.852C50.3243 74.6873 50.0647 74.5797 49.672 74.529L48.646 74.453V74.149H57.538V74.453L56.512 74.51C56.1193 74.548 55.8533 74.643 55.714 74.795C55.5873 74.9343 55.505 75.2193 55.467 75.65L55.429 76.524V85.625L55.467 86.499C55.505 86.917 55.5937 87.202 55.733 87.354C55.885 87.4933 56.1573 87.5883 56.55 87.639L57.538 87.696V88Z" fill="white"/>
</svg>
