<svg width="50" height="32" viewBox="0 0 50 32" fill="none" xmlns="http://www.w3.org/2000/svg">
<path d="M2.32655 5.0354e-05C1.04205 5.0354e-05 0 1.04155 0 2.3266V29.0736C0 30.3584 1.0422 31.4001 2.32655 31.4001H47.6735C48.958 31.4001 50.0001 30.3586 50.0001 29.0735V2.32655C50.0001 1.0417 48.9579 0 47.6735 0H2.3265L2.32655 5.0354e-05ZM16.3953 3.77975C19.2494 3.77975 21.8706 4.7727 23.9281 6.4313C22.197 7.98025 20.9058 10.0153 20.2688 12.322H21.2672C21.8552 10.4191 22.9234 8.72485 24.3313 7.3813C25.7392 8.72485 26.8073 10.4191 27.3953 12.322H28.4094C27.7635 10.0275 26.4705 8.00455 24.7407 6.4657C26.8022 4.78605 29.4337 3.7797 32.3 3.7797C38.9146 3.7797 44.2766 9.1423 44.2766 15.7579C44.2766 22.3734 38.9146 27.736 32.3 27.736C29.386 27.736 26.714 26.6959 24.6375 24.9657C26.495 23.3497 27.8644 21.1833 28.4907 18.7188H27.514C26.958 20.7873 25.8388 22.6271 24.3312 24.0657C22.8237 22.6271 21.7061 20.7873 21.15 18.7188H20.2203C20.8502 21.1476 22.2017 23.2837 24.0312 24.8845C21.9585 26.5933 19.297 27.6204 16.3953 27.6204C9.78075 27.6204 4.41875 22.2836 4.41875 15.7001C4.41875 9.11655 9.78075 3.77975 16.3953 3.77975ZM31.4016 12.2001C29.9625 12.2001 28.5625 13.4582 28.5625 15.8204C28.5625 17.3868 29.3187 18.4204 30.8063 18.4204C31.2269 18.4205 31.8969 18.2485 31.8969 18.2485L32.1188 16.8798C32.1188 16.8798 31.5073 17.1891 31.0875 17.1891C30.2033 17.1891 29.8485 16.5091 29.8485 15.7782C29.8485 14.2956 30.6093 13.4797 31.4563 13.4797C32.0914 13.4797 32.6016 13.8391 32.6016 13.8391L32.8047 12.5079C32.8047 12.5079 32.0495 12.2001 31.4015 12.2001H31.4016ZM43.5 12.3157L42.2485 12.3188L41.9797 13.9657C41.9797 13.9657 41.5092 13.3266 40.7735 13.3266C39.6295 13.3266 38.6766 14.6856 38.6766 16.2485C38.6766 17.2574 39.1837 18.2469 40.2235 18.2469C40.9714 18.2469 41.386 17.7329 41.386 17.7329L41.3313 18.1719H42.5469L43.5 12.3157ZM7.6531 12.3329L6.65625 18.2032H7.8578L8.6172 13.7767L8.7297 18.2032H9.58905L11.1922 13.7767L10.4813 18.2032H11.7578L12.7422 12.3329H10.7672L9.5375 15.9344L9.47345 12.3329H7.65315L7.6531 12.3329ZM20.2063 12.7141C20.1791 12.7414 19.4797 16.7745 19.4797 17.2657C19.4797 17.993 19.8874 18.3178 20.461 18.3126C20.872 18.3091 21.1903 18.2058 21.3375 18.1626C21.3529 18.1584 21.3828 18.1501 21.3828 18.1501L21.5375 17.1001C21.4534 17.1001 21.3295 17.136 21.2203 17.136C20.7921 17.136 20.7446 16.9082 20.7719 16.7391L21.1172 14.597H21.7688L21.9266 13.436H21.3125L21.4375 12.7141H20.2063ZM34.7297 13.3048C33.8911 13.3048 33.2485 13.5813 33.2485 13.5813L33.0703 14.6595C33.0703 14.6595 33.6011 14.4391 34.4032 14.4391C34.8586 14.4391 35.1922 14.4912 35.1922 14.8704C35.1922 15.1007 35.1516 15.186 35.1516 15.186C35.1516 15.186 34.7915 15.1548 34.625 15.1548C33.5674 15.1548 32.4563 15.6183 32.4563 17.0126C32.4563 18.1112 33.1857 18.3626 33.6375 18.3626C34.5004 18.3626 34.8725 17.7893 34.8922 17.7876L34.8516 18.2657H35.9282L36.4094 14.8157C36.4096 13.3518 35.1627 13.3047 34.7297 13.3047V13.3048ZM14.5344 13.311C13.6927 13.311 13.0469 13.5876 13.0469 13.5876L12.8688 14.6657C12.8688 14.6657 13.4013 14.4454 14.2063 14.4454C14.6634 14.4454 14.9985 14.4977 14.9985 14.8766C14.9985 15.1068 14.9578 15.1923 14.9578 15.1923C14.9578 15.1923 14.5967 15.161 14.4297 15.161C13.3681 15.161 12.2532 15.6238 12.2532 17.0173C12.2532 18.1153 12.9841 18.3673 13.4375 18.3673C14.3036 18.3673 14.677 17.794 14.6969 17.7923L14.6563 18.2704H15.7375L16.2203 14.822C16.2203 13.3589 14.969 13.311 14.5344 13.311V13.311ZM18.3531 13.311C17.4493 13.311 16.5313 13.6759 16.5313 14.922C16.5313 16.3339 18.061 16.1912 18.061 16.786C18.061 17.183 17.6341 17.2157 17.3047 17.2157C16.7347 17.2157 16.2222 17.0188 16.2203 17.0282L16.0563 18.1063C16.0858 18.1155 16.4032 18.2579 17.4282 18.2579C17.7034 18.2579 19.2766 18.3278 19.2766 16.6891C19.2766 15.1572 17.8203 15.4608 17.8203 14.8454C17.8203 14.539 18.0568 14.4423 18.4906 14.4423C18.6629 14.4423 19.3266 14.497 19.3266 14.497L19.4797 13.4079C19.4797 13.408 19.0515 13.311 18.3532 13.311H18.3531ZM24.0031 13.311C22.7471 13.3113 21.8172 14.6619 21.8172 16.1876C21.8172 17.9485 22.9823 18.3673 23.975 18.3673C24.8913 18.3673 25.2953 18.1626 25.2953 18.1626L25.5141 16.961C25.5141 16.961 24.817 17.2673 24.1875 17.2673C22.8462 17.2673 23.0813 16.2688 23.0813 16.2688H25.6203C25.6203 16.2688 25.7844 15.4619 25.7844 15.1329C25.7844 14.3119 25.3747 13.311 24.0032 13.311H24.0031ZM28.5516 13.3626C27.9858 13.3626 27.5656 14.1235 27.5656 14.1235L27.6781 13.4251H26.5031L25.7141 18.247H27.0125C27.3803 16.1879 27.4474 14.5159 28.325 14.822C28.4786 14.025 28.6277 13.7171 28.7953 13.3798C28.7953 13.3798 28.7166 13.3626 28.5516 13.3626H28.5516ZM39.0719 13.3626C38.5061 13.3626 38.086 14.1235 38.086 14.1235L38.1985 13.4251H37.0235L36.2344 18.247H37.5313C37.8992 16.1879 37.968 14.5159 38.8453 14.822C38.9992 14.025 39.1481 13.7171 39.3157 13.3798C39.3157 13.3798 39.2369 13.3626 39.0719 13.3626H39.0719ZM23.9969 14.3985C24.7102 14.3985 24.5797 15.2037 24.5797 15.2688H23.175C23.175 15.1857 23.3079 14.3985 23.9969 14.3985H23.9969ZM40.9704 14.4923C41.4244 14.4921 41.6579 14.7988 41.6579 15.5204C41.6579 16.1751 41.3277 17.0501 40.6438 17.0501C40.1899 17.0501 39.9766 16.6752 39.9766 16.0876C39.9766 15.1267 40.4162 14.4923 40.9703 14.4923H40.9704ZM34.7313 16.1329C34.9165 16.1331 34.9548 16.1511 34.986 16.1595C34.9815 16.1587 34.9806 16.1596 34.9985 16.1626C35.0219 16.3773 34.8687 17.3845 34.1281 17.3845C33.7463 17.3845 33.6485 17.0808 33.6485 16.9016C33.6485 16.5522 33.8304 16.1329 34.7313 16.1329ZM14.536 16.1376C14.7463 16.1378 14.7693 16.1613 14.8047 16.1673C14.8282 16.3819 14.6744 17.3876 13.9313 17.3876C13.5479 17.3876 13.4485 17.0854 13.4485 16.9063C13.4485 16.5571 13.6315 16.1376 14.536 16.1376Z" fill="white"/>
</svg>
