<svg width="127" height="127" viewBox="0 0 127 127" fill="none" xmlns="http://www.w3.org/2000/svg">
<g clip-path="url(#clip0_40_4906)">
<path d="M63.8805 75.6839C78.3762 75.6839 90.1272 63.9328 90.1272 49.4371C90.1272 34.9414 78.3762 23.1904 63.8805 23.1904C49.3848 23.1904 37.6337 34.9414 37.6337 49.4371C37.6337 63.9328 49.3848 75.6839 63.8805 75.6839Z" fill="#F5BA46"/>
<path d="M48.6825 8.46756C49.8509 8.46756 50.7991 7.52143 50.7991 6.35093V2.11767C50.7991 0.947172 49.8509 0.0010376 48.6825 0.0010376C47.5141 0.0010376 46.5659 0.947172 46.5659 2.11767V6.35093C46.5659 7.52143 47.5141 8.46756 48.6825 8.46756Z" fill="black"/>
<path d="M84.6653 29.6339V16.9341C84.6653 15.7636 83.7191 14.8175 82.5486 14.8175C81.3781 14.8175 80.432 15.7636 80.432 16.9341V26.4526C75.7648 23.0829 70.0563 21.1674 63.8799 21.1674C63.8186 21.1674 63.7551 21.1674 63.6958 21.1674C59.0413 21.1674 54.6662 22.2786 50.7992 24.2979V14.8175C50.7992 13.647 49.8509 12.7009 48.6825 12.7009C47.5141 12.7009 46.5659 13.647 46.5659 14.8175V27.022C39.8096 32.2522 35.4557 40.6933 35.515 49.8774C35.6144 65.4537 48.3185 78.3164 63.8736 78.3164C63.935 78.3164 63.9985 78.3164 64.0577 78.3164C79.6975 78.3164 92.3402 65.151 92.2386 49.5112C92.192 42.103 89.2711 35.2578 84.57 30.2308C84.606 30.0763 84.6653 29.799 84.6653 29.6339ZM64.0302 74.0832C63.9773 74.0832 63.9265 74.0832 63.8736 74.0832C50.6404 74.0832 39.8329 63.1487 39.7482 49.8964C39.6614 36.5934 50.4182 25.4007 63.7212 25.4007C63.7741 25.4007 63.8249 25.4007 63.8778 25.4007C77.111 25.4007 87.9185 36.3352 88.0032 49.5874C88.09 62.8904 77.3354 74.0832 64.0302 74.0832Z" fill="black"/>
<path d="M82.5486 10.5842C83.7191 10.5842 84.6653 9.63807 84.6653 8.46757V4.23431C84.6653 3.06381 83.7191 2.11768 82.5486 2.11768C81.3781 2.11768 80.432 3.06381 80.432 4.23431V8.46757C80.432 9.63807 81.3781 10.5842 82.5486 10.5842Z" fill="black"/>
<path d="M25.3996 48.6836C24.2312 48.6836 23.2829 49.6297 23.2829 50.8002V67.7333C23.2829 68.9038 24.2312 69.8499 25.3996 69.8499C26.568 69.8499 27.5162 68.9038 27.5162 67.7333V50.8002C27.5162 49.6297 26.568 48.6836 25.3996 48.6836Z" fill="black"/>
<path d="M25.3996 35.9838C24.2312 35.9838 23.2829 36.9299 23.2829 38.1004V42.3337C23.2829 43.5042 24.2312 44.4503 25.3996 44.4503C26.568 44.4503 27.5162 43.5042 27.5162 42.3337V38.1004C27.5162 36.9299 26.568 35.9838 25.3996 35.9838Z" fill="black"/>
<path d="M105.832 29.6339C104.661 29.6339 103.715 30.58 103.715 31.7505V48.6836C103.715 49.8541 104.661 50.8002 105.832 50.8002C107.002 50.8002 107.948 49.8541 107.948 48.6836V31.7505C107.948 30.58 107.002 29.6339 105.832 29.6339Z" fill="black"/>
<path d="M105.832 16.9341C104.661 16.9341 103.715 17.8802 103.715 19.0507V23.284C103.715 24.4545 104.661 25.4006 105.832 25.4006C107.002 25.4006 107.948 24.4545 107.948 23.284V19.0507C107.948 17.8802 107.002 16.9341 105.832 16.9341Z" fill="black"/>
<path d="M71.9379 54.9382L71.9231 52.8237C71.9125 51.1262 71.2437 49.5366 70.0351 48.3449C68.8265 47.1554 67.1628 46.4696 65.533 46.5268L61.2998 46.567C61.2955 46.567 61.2913 46.567 61.2871 46.567C60.1271 46.567 59.1768 45.6124 59.1704 44.4503L59.1577 42.3295C59.1514 41.1611 60.0933 40.2023 61.2617 40.1959L63.3275 40.1811C63.3952 40.1853 63.4545 40.2171 63.5265 40.2171C63.5307 40.2171 63.5349 40.2171 63.5392 40.2171C63.6111 40.2171 63.6725 40.1811 63.7424 40.1747L69.724 40.1366C70.8945 40.1282 71.8364 39.2159 71.8279 38.0475C71.8194 36.8813 70.8754 35.9838 69.7113 35.9838C69.707 35.9838 69.7028 35.9838 69.6986 35.9838L65.6283 35.969L65.6156 33.8735C65.6092 32.7094 64.661 31.7505 63.4989 31.7505C63.4947 31.7505 63.4905 31.7505 63.4862 31.7505C62.3179 31.759 61.376 32.7263 61.3823 33.8947L61.395 35.9838H61.2341C57.7332 35.9838 54.9033 38.8582 54.9245 42.3612L54.9372 44.4842C54.9604 47.9703 57.8052 50.8002 61.2871 50.8002C61.2998 50.8002 61.3146 50.8002 61.3273 50.8002H65.5605C65.5648 50.8002 65.569 50.8002 65.5732 50.8002C66.132 50.8002 66.6591 50.9907 67.0612 51.3823C67.4613 51.7802 67.6856 52.2967 67.6899 52.8639L67.7047 54.9721C67.7132 56.1405 66.7691 57.093 65.6008 57.0993L57.1342 57.1522C55.9658 57.1607 55.0239 58.1132 55.0303 59.2816C55.0388 60.4457 55.987 61.3834 57.149 61.3834C57.1533 61.3834 57.1575 61.3834 57.1617 61.3834L61.395 61.3559L61.4077 63.5148C61.4141 64.679 62.3623 65.6166 63.5243 65.6166C63.5286 65.6166 63.5328 65.6166 63.537 65.6166C64.7054 65.6082 65.6494 64.6557 65.641 63.4852L65.6283 61.3284C69.1292 61.3072 71.9591 58.4413 71.9379 54.9382Z" fill="black"/>
<path d="M48.6825 52.9169C49.8515 52.9169 50.7991 51.9692 50.7991 50.8002C50.7991 49.6312 49.8515 48.6836 48.6825 48.6836C47.5135 48.6836 46.5659 49.6312 46.5659 50.8002C46.5659 51.9692 47.5135 52.9169 48.6825 52.9169Z" fill="black"/>
<path d="M78.3154 52.9169C79.4843 52.9169 80.432 51.9692 80.432 50.8002C80.432 49.6312 79.4843 48.6836 78.3154 48.6836C77.1464 48.6836 76.1987 49.6312 76.1987 50.8002C76.1987 51.9692 77.1464 52.9169 78.3154 52.9169Z" fill="black"/>
<path d="M124.881 124.882H101.598C99.2594 124.882 97.3651 122.988 97.3651 120.649V88.8996C97.3651 86.5607 99.2594 84.6663 101.598 84.6663H124.881V124.882Z" fill="#4A88DB"/>
<path d="M97.3693 88.8996H85.0462V120.649H97.3693V88.8996Z" fill="#F8F8FA"/>
<path d="M63.4989 103.688H47.7089C44.7392 103.688 42.3326 101.386 42.3326 98.5027V98.4943C42.3326 96.3755 43.6534 94.4663 45.6748 93.6641L62.248 87.0878C63.0608 86.7639 63.9583 86.6962 64.8134 86.8909L84.6653 91.3951L84.5234 119.445L64.4705 124.044C63.8313 124.19 63.1666 124.19 62.5274 124.044L27.5162 116.05L4.00256 100.833C2.82359 100.071 2.11664 98.7885 2.11664 97.4148V92.8238C2.11664 90.068 4.85768 88.0932 7.57543 88.8911L42.3326 99.0827" fill="#F1998A"/>
<path d="M124.881 82.5497H101.598C98.8425 82.5497 96.5142 84.3255 95.6379 86.7829H85.042C83.8969 86.7829 82.9762 87.6952 82.9381 88.8318L65.279 84.8251C64.0048 84.5372 62.6819 84.6367 61.4649 85.1214L44.8916 91.6956C42.7517 92.5444 41.1833 94.2674 40.5377 96.3501L8.17231 86.857C6.19961 86.2834 4.12955 86.6496 2.49551 87.873C0.910152 89.0626 0 90.8659 0 92.8238V97.4148C0 99.5145 1.06678 101.458 2.8511 102.611L26.3648 117.828C26.5722 117.961 26.8029 118.058 27.0442 118.113L62.0533 126.108C62.5274 126.218 63.0142 126.271 63.4989 126.271C63.9858 126.271 64.4705 126.218 64.9446 126.108L83.3699 121.881C83.753 122.404 84.3435 122.766 85.0441 122.766H95.64C96.5163 125.223 98.8446 126.999 101.6 126.999H124.883C126.054 126.999 127 126.053 127 124.882V84.6663C126.998 83.4958 126.052 82.5497 124.881 82.5497ZM82.4153 117.758L63.9964 121.983C63.6725 122.059 63.3275 122.059 62.9994 121.983L28.3523 114.071L5.14976 99.0552C4.57616 98.6826 4.23326 98.0709 4.23326 97.4127V92.8217C4.23326 91.9835 4.73279 91.4861 5.03123 91.2639C5.59002 90.8469 6.29698 90.7156 6.97853 90.921L40.5843 100.791C41.5706 103.708 44.3921 105.833 47.7089 105.833H63.4989C64.6673 105.833 65.6156 104.886 65.6156 103.716C65.6156 102.545 64.6673 101.599 63.4989 101.599H47.7089C45.9119 101.599 44.4493 100.209 44.4493 98.5091C44.4493 97.2518 45.2366 96.1236 46.4558 95.6389L63.0291 89.0604C63.4481 88.8932 63.9053 88.8572 64.3456 88.9567L82.5402 93.0842L82.4153 117.758ZM86.7819 91.0162H95.2484V118.532H86.7819V91.0162ZM122.765 122.766H101.598C100.43 122.766 99.4817 121.817 99.4817 120.649V88.8996C99.4817 87.7312 100.43 86.7829 101.598 86.7829H122.765V122.766Z" fill="black"/>
<path d="M114.677 118.532H108.327C107.157 118.532 106.21 117.586 106.21 116.416C106.21 115.245 107.157 114.299 108.327 114.299H114.677C115.847 114.299 116.794 115.245 116.794 116.416C116.794 117.586 115.845 118.532 114.677 118.532Z" fill="black"/>
</g>
<defs>
<clipPath id="clip0_40_4906">
<rect width="127" height="127" fill="white"/>
</clipPath>
</defs>
</svg>
