<svg width="46" height="31" viewBox="0 0 46 31" fill="none" xmlns="http://www.w3.org/2000/svg">
<path d="M42.9333 31H3.06667C2.25334 31 1.47332 30.6734 0.898206 30.092C0.323094 29.5107 0 28.7222 0 27.9L0 3.1C0 2.27783 0.323094 1.48933 0.898206 0.907969C1.47332 0.326606 2.25334 0 3.06667 0L42.9333 0C43.7467 0 44.5267 0.326606 45.1018 0.907969C45.6769 1.48933 46 2.27783 46 3.1V27.9C46 28.7222 45.6769 29.5107 45.1018 30.092C44.5267 30.6734 43.7467 31 42.9333 31ZM17.9298 13.3365C17.8948 13.3369 17.8603 13.3453 17.8289 13.3609C17.7976 13.3766 17.77 13.3991 17.7483 13.4269C17.698 13.4787 17.6692 13.548 17.6678 13.6206C17.6678 13.6477 17.7931 14.034 18.0614 14.8257L18.6415 16.5385L18.9111 17.3368C19.2135 18.2323 19.3715 18.7085 19.3852 18.7653C18.7903 19.5099 18.2525 20.2992 17.7764 21.1265L17.7279 21.2169L17.7253 21.2492C17.7253 21.3784 17.8288 21.4843 17.9579 21.4843L17.9924 21.4817H17.9911H19.5474C19.62 21.4813 19.6912 21.4622 19.7545 21.4263C19.8178 21.3903 19.8709 21.3387 19.9091 21.2763L19.9103 21.275L25.0623 13.7588C25.0894 13.7228 25.1042 13.6788 25.1045 13.6335L25.1032 13.6142V13.6155C25.1015 13.5429 25.0727 13.4737 25.0227 13.4217C25.0012 13.394 24.9739 13.3716 24.9427 13.3559C24.9116 13.3403 24.8773 13.3319 24.8426 13.3313H23.2849C23.2122 13.3318 23.1408 13.3508 23.0773 13.3868C23.0139 13.4227 22.9605 13.4742 22.9221 13.5367L22.9208 13.538L20.7741 16.7232L19.8861 13.6594C19.8633 13.566 19.8103 13.483 19.7355 13.4236C19.6607 13.3641 19.5685 13.3317 19.4733 13.3313L19.4401 13.3326H19.4414L17.9298 13.3365ZM35.7906 13.1931H35.7573C34.7888 13.1931 33.9186 13.618 33.3181 14.2923L33.3155 14.2949C32.6587 14.9816 32.292 15.8998 32.2933 16.855V16.8898V16.8885C32.2907 16.926 32.2907 16.9712 32.2907 17.0151C32.2907 17.7087 32.5578 18.3404 32.9922 18.8092L32.9909 18.808C33.2381 19.0513 33.5322 19.2404 33.855 19.3636C34.1778 19.4867 34.5222 19.5411 34.8667 19.5235H34.8603C35.2909 19.5184 35.6998 19.4292 36.0729 19.2691L36.0525 19.2768C36.4294 19.1335 36.7489 18.91 37.0006 18.6258L37.0032 18.6232C36.9904 18.6969 36.9763 18.7589 36.9597 18.8183L36.9623 18.8054C36.9395 18.8845 36.9257 18.9659 36.9214 19.0482V19.0508C36.9214 19.2678 37.0096 19.3776 37.1846 19.3776H38.5787C38.6331 19.3825 38.688 19.3764 38.74 19.3595C38.7921 19.3427 38.8402 19.3154 38.8817 19.2794C38.9231 19.2434 38.957 19.1994 38.9814 19.1499C39.0057 19.1004 39.02 19.0465 39.0233 18.9914V18.9901L39.8513 13.6594C39.8591 13.6192 39.8578 13.5777 39.8474 13.5381C39.837 13.4984 39.8178 13.4617 39.7913 13.4307C39.7683 13.3987 39.7381 13.3727 39.7032 13.3547C39.6684 13.3368 39.6298 13.3274 39.5907 13.3274H38.0535C37.8657 13.3274 37.7468 13.5535 37.7085 14.0017C37.4836 13.7099 37.1878 13.482 36.8499 13.3401C36.512 13.1982 36.1435 13.1471 35.7803 13.1918L35.7906 13.1905V13.1931ZM12.8378 13.1931H12.8021C11.8348 13.1931 10.9646 13.618 10.3666 14.2923L10.3641 14.2949C9.70722 14.9816 9.3406 15.8998 9.34183 16.855V16.8898V16.8885C9.32491 17.2396 9.37819 17.5906 9.4985 17.9204C9.61882 18.2502 9.80369 18.552 10.0421 18.808L10.0408 18.8067C10.4931 19.251 11.1116 19.5248 11.7939 19.5248L11.9166 19.5222H11.9102C12.3344 19.5158 12.7369 19.4267 13.1036 19.2678L13.0832 19.2755C13.4652 19.1283 13.7898 18.9061 14.0517 18.6232L14.053 18.622C14.0057 18.7485 13.9763 18.8958 13.9725 19.0482V19.0508C13.9725 19.2678 14.0619 19.3776 14.2357 19.3776H15.6285C15.6829 19.3825 15.7378 19.3764 15.7898 19.3595C15.8419 19.3427 15.8901 19.3154 15.9315 19.2794C15.973 19.2434 16.0069 19.1994 16.0312 19.1499C16.0555 19.1004 16.0698 19.0465 16.0732 18.9914V18.9901L16.9024 13.6594C16.9094 13.6195 16.9075 13.5785 16.8969 13.5394C16.8863 13.5003 16.8672 13.4641 16.8411 13.4333C16.8181 13.4013 16.7879 13.3753 16.7531 13.3573C16.7182 13.3394 16.6796 13.33 16.6405 13.33H15.1033C14.9155 13.33 14.7967 13.556 14.7596 14.0042C14.5323 13.7149 14.2361 13.4886 13.8986 13.3467C13.5611 13.2048 13.1934 13.1519 12.8302 13.1931L12.8404 13.1918L12.8378 13.1931ZM41.6709 10.3333L41.6504 10.332C41.5894 10.3318 41.5306 10.3548 41.4856 10.3965C41.4406 10.4381 41.4128 10.4953 41.4077 10.5568V10.5581L40.0941 19.0547C40.0833 19.0956 40.0832 19.1386 40.0937 19.1795C40.1042 19.2205 40.1251 19.258 40.1542 19.2885C40.1783 19.3174 40.2085 19.3406 40.2425 19.3564C40.2765 19.3723 40.3135 19.3804 40.3509 19.3802H41.6926L41.7335 19.3827C41.8352 19.3827 41.9327 19.3419 42.0046 19.2693C42.0764 19.1966 42.1168 19.098 42.1168 18.9953V18.9927L43.4278 10.642L43.4291 10.6136C43.429 10.54 43.4053 10.4683 43.3614 10.4095V10.4108C43.3384 10.3861 43.3107 10.3663 43.28 10.3528C43.2492 10.3392 43.216 10.3322 43.1825 10.332L43.1633 10.3333H43.1646H41.6709ZM26.7592 10.3333C26.7044 10.3261 26.6486 10.3306 26.5956 10.3465C26.5426 10.3625 26.4935 10.3896 26.4516 10.426C26.4096 10.4625 26.3757 10.5075 26.3521 10.558C26.3285 10.6086 26.3157 10.6636 26.3146 10.7195L25.0023 19.0534C24.9955 19.093 24.9974 19.1336 25.0078 19.1725C25.0181 19.2113 25.0368 19.2473 25.0623 19.2781C25.0849 19.3103 25.1148 19.3364 25.1495 19.3544C25.1842 19.3724 25.2227 19.3817 25.2617 19.3815H26.9292C27.004 19.3814 27.0765 19.3551 27.1343 19.307C27.1921 19.259 27.2316 19.1922 27.2461 19.118V19.1154L27.6102 16.7465C27.6211 16.6427 27.6721 16.5476 27.7521 16.4817H27.7533C27.8405 16.4104 27.9452 16.3645 28.0562 16.3486H28.06C28.1635 16.3292 28.2823 16.3189 28.4037 16.3176H28.405C28.5123 16.3176 28.6401 16.3241 28.7883 16.3383C28.9503 16.3571 29.1134 16.3658 29.2764 16.3641C30.2126 16.3657 31.1147 16.009 31.8013 15.3657L31.7988 15.3682C32.1412 15.0012 32.4056 14.5672 32.5757 14.0929C32.7458 13.6186 32.8179 13.1141 32.7878 12.6105V12.6209C32.8153 12.2879 32.7588 11.9532 32.6236 11.6483C32.4884 11.3433 32.2789 11.078 32.0147 10.8771L32.0096 10.8733C31.3999 10.4835 30.6856 10.2944 29.9652 10.332H29.9728L26.7592 10.3333ZM3.78222 10.3333C3.72877 10.3275 3.67471 10.3332 3.62355 10.3499C3.57239 10.3666 3.52528 10.394 3.48528 10.4303C3.44527 10.4665 3.41326 10.5109 3.39134 10.5606C3.36941 10.6102 3.35805 10.6639 3.358 10.7183V10.7208L2.04444 19.0547C2.03759 19.0943 2.03942 19.1349 2.0498 19.1738C2.06017 19.2126 2.07885 19.2487 2.1045 19.2794C2.12707 19.3116 2.15697 19.3377 2.19167 19.3557C2.22637 19.3737 2.26484 19.383 2.30383 19.3827H3.84228C3.89713 19.39 3.95288 19.3855 4.00589 19.3696C4.0589 19.3536 4.10799 19.3265 4.14995 19.29C4.19191 19.2536 4.22579 19.2086 4.2494 19.1581C4.27301 19.1075 4.2858 19.0524 4.28694 18.9965L4.65111 16.7503C4.66218 16.647 4.71259 16.552 4.79167 16.4855H4.79294C4.88013 16.4143 4.98479 16.3683 5.09578 16.3525H5.09961C5.21268 16.3323 5.32724 16.322 5.44206 16.3215H5.44333C5.55067 16.3215 5.67844 16.328 5.82667 16.3422C5.98826 16.3609 6.15085 16.3696 6.3135 16.368C7.28844 16.368 8.17522 15.9895 8.83967 15.3695L8.83711 15.3721C9.17938 15.005 9.44369 14.5709 9.61378 14.0967C9.78386 13.6224 9.85612 13.118 9.82611 12.6144V12.6248C9.85361 12.2917 9.79712 11.9571 9.66193 11.6521C9.52673 11.3472 9.31725 11.0819 9.05306 10.881L9.04794 10.8771C8.44086 10.4888 7.73001 10.2993 7.01244 10.3346H7.02011L3.78222 10.3333ZM35.7062 17.8702L35.6449 17.8715C35.3184 17.8718 35.0024 17.7551 34.753 17.5421L34.7556 17.5434C34.6402 17.436 34.5482 17.3056 34.4853 17.1604C34.4224 17.0153 34.39 16.8585 34.3901 16.7L34.3914 16.6418V16.607C34.3914 16.1239 34.5843 15.686 34.8974 15.3682C35.2053 15.0492 35.6347 14.8516 36.11 14.8516H36.1522H36.1496L36.1931 14.8503C36.5368 14.8503 36.8498 14.9782 37.0901 15.1887L37.0888 15.1874C37.2074 15.2985 37.3021 15.4331 37.3667 15.583C37.4314 15.7328 37.4646 15.8945 37.4644 16.058L37.4632 16.12V16.1174V16.1484C37.4632 16.625 37.2677 17.0565 36.9521 17.3626C36.7926 17.5231 36.6035 17.6504 36.3954 17.737C36.1874 17.8237 35.9645 17.8681 35.7394 17.8676H35.7075H35.7088L35.7062 17.8702ZM12.7331 17.8702L12.6692 17.8715C12.3344 17.8715 12.0264 17.7475 11.7913 17.5421L11.7926 17.5434C11.6803 17.4348 11.5908 17.3043 11.5298 17.1598C11.4687 17.0152 11.4373 16.8597 11.4374 16.7025L11.4387 16.6418V16.607C11.4387 16.1239 11.6316 15.686 11.9447 15.3682C12.2526 15.0492 12.6807 14.8516 13.156 14.8516H13.2007H13.1982L13.2416 14.8503C13.5853 14.8503 13.8984 14.9782 14.1386 15.1887L14.1373 15.1874C14.2557 15.2984 14.35 15.4329 14.4144 15.5825C14.4789 15.7321 14.512 15.8935 14.5117 16.0567L14.5104 16.12V16.1174V16.1626C14.5104 16.6392 14.3149 17.0681 13.9993 17.3742C13.6718 17.6928 13.2349 17.8706 12.7803 17.8702H12.7343H12.7369H12.7331ZM27.9476 14.5635L28.2913 12.3793C28.294 12.3472 28.303 12.3159 28.3177 12.2872C28.3324 12.2586 28.3526 12.2332 28.377 12.2124C28.4015 12.1917 28.4297 12.176 28.4602 12.1663C28.4906 12.1566 28.5227 12.153 28.5545 12.1559H28.5532H28.9174L28.9953 12.1546C29.2164 12.1546 29.4349 12.1701 29.6483 12.1998L29.624 12.1972C29.8221 12.2334 29.9946 12.3238 30.13 12.453C30.2072 12.5267 30.2686 12.6156 30.3106 12.7142C30.3526 12.8128 30.3742 12.9191 30.3741 13.0265L30.3728 13.0755V13.073C30.3996 13.2887 30.3733 13.5079 30.2962 13.7109C30.2191 13.914 30.0935 14.0946 29.9307 14.2367L29.9294 14.238C29.5222 14.4729 29.0554 14.5808 28.5877 14.548H28.5954L27.9501 14.5687L27.9476 14.5635ZM4.97439 14.5635L5.31811 12.3793C5.32068 12.3471 5.32955 12.3157 5.34421 12.287C5.35887 12.2583 5.37903 12.2328 5.40352 12.212C5.42801 12.1912 5.45634 12.1755 5.48686 12.1659C5.51738 12.1563 5.5495 12.1529 5.58133 12.1559H5.58006H5.96339C6.37249 12.1256 6.78202 12.2086 7.14789 12.3961L7.13511 12.3897C7.37661 12.546 7.45839 12.8779 7.37789 13.3791C7.37172 13.5662 7.32114 13.7491 7.23041 13.9123C7.13968 14.0755 7.01146 14.2142 6.85656 14.3168L6.85272 14.3194C6.24709 14.5449 5.59861 14.6279 4.9565 14.5623L4.97439 14.5635Z" fill="white"/>
</svg>
