<svg width="99" height="102" viewBox="0 0 99 102" fill="none" xmlns="http://www.w3.org/2000/svg">
<path d="M97.7526 20.1487L76.7276 40.9321C76.7276 40.9321 70.4443 40.9321 64.161 34.6487C57.8776 28.3654 57.8776 22.0821 57.8776 22.0821L78.9026 1.05708C67.061 -1.84292 52.8026 2.02374 44.1026 10.7237C31.0526 23.7737 42.6526 40.4487 39.2693 43.8321C20.9026 62.9237 2.05265 77.4237 1.56932 78.1487C-3.98902 83.7071 -4.23068 92.6487 1.08598 97.9654C6.40265 103.282 15.3443 103.04 20.9026 97.4821C21.6276 96.7571 37.0943 77.1821 55.2193 59.0571C58.6026 55.6737 74.5527 67.9987 88.086 54.7071C96.5443 46.0071 100.653 31.9904 97.7526 20.1487ZM12.4443 92.8904C9.06098 92.8904 6.40265 90.2321 6.40265 86.8487C6.40265 83.2237 9.06098 80.5654 12.4443 80.5654C15.8277 80.5654 18.486 83.2237 18.486 86.6071C18.486 89.9904 15.8277 92.8904 12.4443 92.8904Z" fill="#607D8B"/>
</svg>
