<svg width="602" height="444" viewBox="0 0 602 444" fill="none" xmlns="http://www.w3.org/2000/svg">
<g clip-path="url(#clip0_40_4819)">
<path d="M598.665 26.7656H3.33464C2.45053 26.7647 1.60292 26.4133 0.97776 25.7886C0.352603 25.1639 0.000966331 24.3168 0 23.4334V3.83223C0.000966331 2.94876 0.352603 2.10175 0.97776 1.47705C1.60292 0.85234 2.45053 0.500964 3.33464 0.5H598.665C599.549 0.500966 600.397 0.852351 601.022 1.47706C601.647 2.10176 601.999 2.94876 602 3.83223V23.4334C601.999 24.3169 601.647 25.1639 601.022 25.7886C600.397 26.4133 599.549 26.7646 598.665 26.7656Z" fill="#E4E4E4"/>
<path d="M19.3523 17.4077C21.967 17.4077 24.0867 15.2896 24.0867 12.6768C24.0867 10.0639 21.967 7.9458 19.3523 7.9458C16.7376 7.9458 14.618 10.0639 14.618 12.6768C14.618 15.2896 16.7376 17.4077 19.3523 17.4077Z" fill="white"/>
<path d="M37.3224 17.4077C39.9371 17.4077 42.0567 15.2896 42.0567 12.6768C42.0567 10.0639 39.9371 7.9458 37.3224 7.9458C34.7077 7.9458 32.588 10.0639 32.588 12.6768C32.588 15.2896 34.7077 17.4077 37.3224 17.4077Z" fill="white"/>
<path d="M55.2932 17.4077C57.908 17.4077 60.0276 15.2896 60.0276 12.6768C60.0276 10.0639 57.908 7.9458 55.2932 7.9458C52.6785 7.9458 50.5589 10.0639 50.5589 12.6768C50.5589 15.2896 52.6785 17.4077 55.2932 17.4077Z" fill="white"/>
<path d="M581.059 9.4205H560.365C559.959 9.4196 559.57 9.25783 559.284 8.97067C558.997 8.68351 558.836 8.29443 558.836 7.88877C558.836 7.48312 558.997 7.09404 559.284 6.80689C559.57 6.51973 559.959 6.35795 560.365 6.35706H581.059C581.465 6.35677 581.854 6.51762 582.142 6.80428C582.43 7.09094 582.592 7.47997 582.592 7.8859C582.593 8.29183 582.433 8.68147 582.146 8.96921C581.86 9.25695 581.471 9.41927 581.064 9.4205H581.059Z" fill="white"/>
<path d="M581.059 15.1645H560.365C559.959 15.1636 559.57 15.0018 559.284 14.7147C558.997 14.4275 558.836 14.0385 558.836 13.6328C558.836 13.2272 558.997 12.8381 559.284 12.5509C559.57 12.2637 559.959 12.102 560.365 12.1011H581.059C581.465 12.1008 581.854 12.2616 582.142 12.5483C582.43 12.835 582.592 13.224 582.592 13.6299C582.593 14.0359 582.433 14.4255 582.146 14.7132C581.86 15.001 581.471 15.1633 581.064 15.1645H581.059Z" fill="white"/>
<path d="M581.059 20.9084H560.365C559.959 20.9084 559.569 20.747 559.282 20.4598C558.994 20.1725 558.833 19.7829 558.833 19.3767C558.833 18.9705 558.994 18.5809 559.282 18.2936C559.569 18.0064 559.959 17.845 560.365 17.845H581.059C581.465 17.8442 581.855 18.0049 582.143 18.2916C582.431 18.5783 582.593 18.9676 582.594 19.3738C582.595 19.7801 582.434 20.17 582.147 20.4578C581.86 20.7455 581.471 20.9077 581.064 20.9084H581.059Z" fill="white"/>
<path d="M169.751 390.006C171.941 372.403 182.858 355.06 199.658 349.332C193.032 367.449 193.034 387.325 199.662 405.442C202.243 412.42 205.842 419.912 203.413 426.944C201.903 431.32 198.207 434.668 194.075 436.761C189.944 438.855 185.359 439.852 180.831 440.83L179.94 441.567C172.752 425.348 167.56 407.608 169.751 390.006Z" fill="#F0F0F0"/>
<path d="M199.824 349.664C190.041 360.618 183.961 374.374 182.446 388.978C182.065 392.116 182.18 395.295 182.789 398.397C183.48 401.4 184.962 404.163 187.083 406.399C189.018 408.524 191.244 410.474 192.629 413.032C193.319 414.352 193.721 415.803 193.81 417.289C193.899 418.775 193.673 420.263 193.146 421.656C191.923 425.16 189.513 428.017 187.06 430.728C184.335 433.739 181.458 436.823 180.3 440.814C180.159 441.297 179.417 441.051 179.557 440.569C181.572 433.625 188.317 429.68 191.534 423.426C193.035 420.508 193.665 417.12 192.258 414.039C191.027 411.345 188.734 409.333 186.755 407.198C184.654 405.047 183.113 402.414 182.265 399.53C181.5 396.469 181.262 393.3 181.561 390.159C182.122 383.077 183.793 376.127 186.514 369.564C189.578 362.056 193.905 355.128 199.307 349.078C199.641 348.704 200.157 349.292 199.824 349.664Z" fill="white"/>
<path d="M182.657 384.247C180.24 383.66 178.109 382.234 176.647 380.223C175.185 378.212 174.485 375.747 174.674 373.268C174.682 373.167 174.73 373.074 174.806 373.007C174.883 372.94 174.982 372.906 175.083 372.911C175.185 372.916 175.28 372.96 175.349 373.034C175.419 373.108 175.457 373.206 175.455 373.307C175.276 375.615 175.927 377.911 177.293 379.781C178.658 381.651 180.648 382.972 182.902 383.505C183.392 383.621 183.144 384.363 182.657 384.247Z" fill="white"/>
<path d="M185.96 405.451C190.326 402.846 193.549 398.692 194.987 393.817C195.129 393.334 195.871 393.58 195.73 394.063C194.224 399.132 190.861 403.448 186.311 406.149C185.878 406.406 185.528 405.707 185.96 405.451Z" fill="white"/>
<path d="M190.304 362.797C191.192 363.219 192.171 363.413 193.153 363.364C194.135 363.314 195.089 363.021 195.93 362.512C196.36 362.249 196.709 362.949 196.282 363.21C195.35 363.768 194.296 364.09 193.211 364.148C192.126 364.205 191.044 363.996 190.059 363.539C189.962 363.504 189.883 363.433 189.837 363.342C189.79 363.25 189.781 363.144 189.81 363.046C189.843 362.947 189.913 362.866 190.006 362.82C190.098 362.773 190.206 362.765 190.304 362.797Z" fill="white"/>
<path d="M250.865 380.772C250.601 380.943 250.337 381.115 250.073 381.293C246.535 383.618 243.191 386.226 240.076 389.092C239.832 389.31 239.587 389.534 239.35 389.758C231.918 396.743 225.848 405.045 221.45 414.244C219.703 417.906 218.237 421.695 217.065 425.579C215.447 430.944 214.12 436.888 210.918 441.276C210.589 441.738 210.232 442.178 209.848 442.596H180.908C180.842 442.563 180.776 442.536 180.71 442.503L179.554 442.556C179.601 442.352 179.653 442.141 179.7 441.936C179.726 441.817 179.759 441.699 179.786 441.58C179.805 441.501 179.825 441.421 179.838 441.349C179.845 441.322 179.852 441.296 179.858 441.276C179.871 441.204 179.891 441.138 179.905 441.072C180.195 439.891 180.494 438.71 180.802 437.528C180.802 437.522 180.802 437.522 180.809 437.515C183.071 428.493 186.395 419.771 190.713 411.532C190.845 411.288 190.977 411.037 191.123 410.793C193.122 407.146 195.417 403.668 197.983 400.394C199.394 398.606 200.895 396.891 202.48 395.254C206.582 391.034 211.324 387.485 216.53 384.737C226.91 379.261 238.927 377.162 250.02 380.508C250.304 380.594 250.581 380.679 250.865 380.772Z" fill="#F0F0F0"/>
<path d="M250.8 381.139C236.389 383.999 223.246 391.324 213.238 402.073C211.042 404.349 209.22 406.957 207.837 409.8C206.579 412.613 206.098 415.711 206.444 418.773C206.709 421.634 207.311 424.53 206.876 427.405C206.631 428.874 206.078 430.275 205.254 431.515C204.43 432.755 203.352 433.807 202.092 434.602C199.005 436.664 195.36 437.495 191.767 438.184C187.778 438.948 183.622 439.68 180.293 442.169C179.889 442.471 179.445 441.828 179.847 441.527C185.64 437.195 193.402 438.104 199.739 435.046C202.696 433.619 205.24 431.292 205.972 427.986C206.613 425.095 205.994 422.108 205.701 419.213C205.319 416.232 205.675 413.202 206.735 410.389C207.969 407.485 209.688 404.811 211.82 402.484C216.534 397.166 222.056 392.623 228.183 389.02C235.153 384.869 242.782 381.939 250.74 380.359C251.232 380.262 251.289 381.042 250.8 381.139Z" fill="white"/>
<path d="M216.257 398.422C214.68 396.5 213.838 394.079 213.882 391.594C213.926 389.108 214.853 386.719 216.497 384.854C216.831 384.477 217.432 384.978 217.098 385.355C215.563 387.09 214.7 389.315 214.664 391.63C214.628 393.944 215.421 396.196 216.9 397.977C217.221 398.365 216.576 398.808 216.257 398.422Z" fill="white"/>
<path d="M206.118 417.34C211.174 417.886 216.25 416.509 220.335 413.482C220.739 413.182 221.184 413.825 220.78 414.124C216.524 417.267 211.238 418.689 205.978 418.109C205.477 418.053 205.62 417.284 206.118 417.34Z" fill="white"/>
<path d="M235.286 385.897C235.741 386.768 236.405 387.512 237.219 388.063C238.033 388.614 238.972 388.954 239.95 389.053C240.452 389.103 240.309 389.872 239.81 389.823C238.73 389.708 237.694 389.331 236.793 388.724C235.893 388.117 235.154 387.299 234.643 386.342C234.587 386.255 234.566 386.151 234.585 386.05C234.603 385.949 234.659 385.859 234.742 385.798C234.827 385.739 234.932 385.717 235.034 385.735C235.136 385.754 235.227 385.812 235.286 385.897Z" fill="white"/>
<path d="M195.126 137.169H99.3779C96.419 137.166 93.5824 135.99 91.4902 133.899C89.398 131.808 88.2211 128.974 88.2178 126.017V73.9055C88.2212 70.9488 89.398 68.1142 91.4902 66.0236C93.5824 63.9329 96.4191 62.757 99.3779 62.7538H195.126C198.085 62.757 200.922 63.9329 203.014 66.0236C205.106 68.1142 206.283 70.9488 206.286 73.9054V126.017C206.283 128.974 205.106 131.808 203.014 133.899C200.922 135.99 198.085 137.166 195.126 137.169Z" fill="#E6E6E6"/>
<path d="M341.306 137.169H245.558C242.599 137.166 239.762 135.99 237.67 133.899C235.578 131.808 234.401 128.974 234.398 126.017V73.9055C234.401 70.9488 235.578 68.1142 237.67 66.0236C239.762 63.9329 242.599 62.757 245.558 62.7538H341.306C344.265 62.757 347.101 63.9329 349.193 66.0236C351.286 68.1142 352.463 70.9488 352.466 73.9054V126.017C352.463 128.974 351.286 131.808 349.194 133.899C347.101 135.99 344.265 137.166 341.306 137.169Z" fill="#27AAE1"/>
<path d="M487.486 137.169H391.737C388.779 137.166 385.942 135.99 383.85 133.899C381.757 131.808 380.581 128.974 380.577 126.017V73.9055C380.581 70.9488 381.757 68.1142 383.85 66.0236C385.942 63.9329 388.779 62.757 391.737 62.7538H487.486C490.444 62.757 493.281 63.9329 495.373 66.0236C497.465 68.1142 498.642 70.9488 498.646 73.9054V126.017C498.642 128.974 497.465 131.808 495.373 133.899C493.281 135.99 490.444 137.166 487.486 137.169Z" fill="#E6E6E6"/>
<path d="M195.126 253.28H99.3779C96.419 253.277 93.5824 252.101 91.4902 250.01C89.398 247.919 88.2211 245.085 88.2178 242.128V190.016C88.2212 187.06 89.398 184.225 91.4902 182.134C93.5824 180.044 96.4191 178.868 99.3779 178.865H195.126C198.085 178.868 200.922 180.044 203.014 182.134C205.106 184.225 206.283 187.06 206.286 190.016V242.128C206.283 245.084 205.106 247.919 203.014 250.01C200.922 252.101 198.085 253.277 195.126 253.28Z" fill="#F2F2F2"/>
<path d="M341.306 253.28H245.558C242.599 253.277 239.762 252.101 237.67 250.01C235.578 247.919 234.401 245.085 234.398 242.128V190.016C234.401 187.06 235.578 184.225 237.67 182.134C239.762 180.044 242.599 178.868 245.558 178.865H341.306C344.265 178.868 347.101 180.044 349.193 182.134C351.286 184.225 352.463 187.06 352.466 190.016V242.128C352.463 245.084 351.286 247.919 349.194 250.01C347.101 252.101 344.265 253.277 341.306 253.28Z" fill="#E6E6E6"/>
<path d="M348.066 262.869C357.511 262.869 365.167 255.218 365.167 245.781C365.167 236.343 357.511 228.692 348.066 228.692C338.622 228.692 330.965 236.343 330.965 245.781C330.965 255.218 338.622 262.869 348.066 262.869Z" fill="#27AAE1"/>
<path d="M355.168 244.346H349.353V238.535C349.353 238.356 349.318 238.178 349.249 238.012C349.181 237.846 349.08 237.696 348.953 237.569C348.826 237.442 348.675 237.341 348.509 237.272C348.343 237.204 348.165 237.168 347.985 237.168C347.806 237.168 347.628 237.204 347.462 237.272C347.296 237.341 347.145 237.442 347.018 237.569C346.891 237.696 346.79 237.846 346.721 238.012C346.653 238.178 346.617 238.356 346.617 238.535V244.346H340.803C340.623 244.346 340.445 244.381 340.279 244.45C340.113 244.518 339.962 244.619 339.835 244.746C339.708 244.873 339.608 245.024 339.539 245.19C339.47 245.355 339.435 245.533 339.435 245.713C339.435 245.892 339.47 246.07 339.539 246.236C339.608 246.402 339.708 246.553 339.835 246.679C339.962 246.806 340.113 246.907 340.279 246.976C340.445 247.045 340.623 247.08 340.803 247.08H346.617V252.89C346.617 253.07 346.653 253.247 346.721 253.413C346.79 253.579 346.891 253.73 347.018 253.857C347.145 253.984 347.296 254.084 347.462 254.153C347.628 254.222 347.806 254.257 347.985 254.257C348.348 254.257 348.696 254.113 348.953 253.857C349.209 253.6 349.353 253.253 349.353 252.89V247.08H355.168C355.347 247.08 355.525 247.045 355.691 246.976C355.857 246.907 356.008 246.806 356.135 246.679C356.262 246.552 356.363 246.402 356.432 246.236C356.5 246.07 356.536 245.892 356.536 245.713C356.536 245.533 356.5 245.355 356.432 245.189C356.363 245.024 356.262 244.873 356.135 244.746C356.008 244.619 355.857 244.518 355.691 244.45C355.525 244.381 355.347 244.346 355.168 244.346Z" fill="white"/>
<path d="M496.495 149.755C505.94 149.755 513.596 142.104 513.596 132.666C513.596 123.229 505.94 115.578 496.495 115.578C487.05 115.578 479.394 123.229 479.394 132.666C479.394 142.104 487.05 149.755 496.495 149.755Z" fill="#27AAE1"/>
<path d="M503.596 131.231H497.782V125.421C497.782 125.242 497.747 125.064 497.678 124.898C497.609 124.732 497.508 124.581 497.381 124.454C497.254 124.327 497.103 124.227 496.938 124.158C496.772 124.089 496.594 124.054 496.414 124.054C496.234 124.054 496.056 124.089 495.89 124.158C495.724 124.227 495.574 124.327 495.447 124.454C495.319 124.581 495.219 124.732 495.15 124.898C495.081 125.064 495.046 125.242 495.046 125.421V131.231H489.232C489.052 131.231 488.874 131.267 488.708 131.335C488.542 131.404 488.391 131.505 488.264 131.632C488.137 131.759 488.036 131.909 487.967 132.075C487.899 132.241 487.863 132.419 487.863 132.598C487.863 132.778 487.899 132.956 487.967 133.122C488.036 133.288 488.137 133.438 488.264 133.565C488.391 133.692 488.542 133.793 488.708 133.862C488.874 133.93 489.052 133.966 489.232 133.966H495.046V139.776C495.046 139.955 495.081 140.133 495.15 140.299C495.219 140.465 495.32 140.616 495.447 140.743C495.574 140.869 495.724 140.97 495.89 141.039C496.056 141.108 496.234 141.143 496.414 141.143C496.777 141.143 497.125 140.999 497.381 140.743C497.638 140.486 497.782 140.138 497.782 139.776V133.966H503.596C503.776 133.966 503.954 133.93 504.12 133.862C504.286 133.793 504.437 133.692 504.564 133.565C504.691 133.438 504.792 133.288 504.86 133.122C504.929 132.956 504.964 132.778 504.964 132.598C504.964 132.419 504.929 132.241 504.86 132.075C504.792 131.909 504.691 131.759 504.564 131.632C504.437 131.505 504.286 131.404 504.12 131.335C503.954 131.267 503.776 131.231 503.596 131.231Z" fill="white"/>
<path d="M201.887 148.257C211.331 148.257 218.988 140.606 218.988 131.168C218.988 121.73 211.331 114.079 201.887 114.079C192.442 114.079 184.786 121.73 184.786 131.168C184.786 140.606 192.442 148.257 201.887 148.257Z" fill="#27AAE1"/>
<path d="M208.988 129.733H203.174V123.923C203.174 123.743 203.138 123.566 203.069 123.4C203.001 123.234 202.9 123.083 202.773 122.956C202.646 122.829 202.495 122.728 202.329 122.66C202.163 122.591 201.985 122.556 201.805 122.556C201.626 122.556 201.448 122.591 201.282 122.66C201.116 122.728 200.965 122.829 200.838 122.956C200.711 123.083 200.61 123.234 200.541 123.4C200.473 123.566 200.437 123.743 200.437 123.923V129.733H194.623C194.443 129.733 194.265 129.768 194.099 129.837C193.933 129.906 193.783 130.006 193.656 130.133C193.529 130.26 193.428 130.411 193.359 130.577C193.29 130.743 193.255 130.921 193.255 131.1C193.255 131.463 193.399 131.811 193.656 132.067C193.912 132.323 194.26 132.467 194.623 132.467H200.437V138.277C200.437 138.457 200.473 138.635 200.541 138.801C200.61 138.967 200.711 139.117 200.838 139.244C200.965 139.371 201.116 139.472 201.282 139.541C201.448 139.609 201.626 139.645 201.805 139.645C201.985 139.645 202.163 139.609 202.329 139.541C202.495 139.472 202.646 139.371 202.773 139.244C202.9 139.117 203.001 138.967 203.069 138.801C203.138 138.635 203.174 138.457 203.174 138.278V132.467H208.988C209.168 132.467 209.346 132.432 209.512 132.363C209.678 132.295 209.828 132.194 209.955 132.067C210.082 131.94 210.183 131.789 210.252 131.623C210.321 131.457 210.356 131.28 210.356 131.1C210.356 130.738 210.212 130.39 209.955 130.133C209.699 129.877 209.351 129.733 208.988 129.733Z" fill="white"/>
<path d="M329.918 107.561C330.23 108.504 330.331 109.504 330.215 110.491C330.098 111.477 329.766 112.426 329.243 113.271C328.72 114.115 328.018 114.835 327.186 115.379C326.355 115.923 325.414 116.278 324.43 116.419L316.522 170.355L303.551 164.024L316.598 110.186C316.47 108.519 316.958 106.863 317.971 105.531C318.983 104.2 320.449 103.285 322.091 102.962C323.733 102.638 325.437 102.928 326.879 103.776C328.322 104.623 329.403 105.97 329.918 107.561Z" fill="#9E616A"/>
<path d="M235.473 280.304C236.051 279.496 236.444 278.571 236.625 277.594C236.806 276.617 236.77 275.613 236.521 274.651C236.271 273.69 235.813 272.795 235.18 272.029C234.547 271.264 233.754 270.646 232.856 270.22L238.19 212.849L227.017 218.572L223.528 273.856C222.912 275.411 222.888 277.138 223.46 278.709C224.033 280.28 225.163 281.587 226.635 282.382C228.107 283.177 229.82 283.404 231.449 283.021C233.078 282.638 234.51 281.672 235.473 280.304Z" fill="#9E616A"/>
<path d="M243.107 251.287L291.054 249.444L293.821 199.688H238.496L243.107 251.287Z" fill="#9E616A"/>
<path d="M234.208 427.005L242.401 427.004L246.299 395.424H234.206L234.208 427.005Z" fill="#9E616A"/>
<path d="M232.175 422.966L245.127 422.193V427.738L257.441 436.237C258.05 436.656 258.508 437.259 258.749 437.958C258.99 438.656 259.001 439.413 258.781 440.118C258.561 440.823 258.121 441.44 257.526 441.877C256.931 442.315 256.211 442.551 255.472 442.551H240.052L237.394 437.066L236.356 442.551H230.542L232.175 422.966Z" fill="#2F2E41"/>
<path d="M270.651 427.005L278.844 427.004L282.742 395.424H270.649L270.651 427.005Z" fill="#9E616A"/>
<path d="M242.441 239.607C242.441 239.607 228.095 251.181 235.872 292.515C234.688 292.656 236.029 294.989 236.029 294.989L237.151 328.668L238.018 332.528L235.135 338.756L236.324 345.524L232.66 406.944L246.196 408.693L259.15 344.912L261.617 337.741L264.091 331.456L262.757 324.753L263.851 314.349L271.319 279.27L273.147 340.11L270.596 345.919L272.016 352.295L268.853 355.679L267.603 412.604L282.037 413.278L293.98 355.895L293.054 348.572L294.642 343.157V330.51L297.364 324.541L303.296 291.995C303.296 291.995 305.086 266.557 292.028 236.622L242.441 239.607Z" fill="#2F2E41"/>
<path d="M248.288 158.336C248.288 158.336 230.168 161.917 227.046 177.359C223.924 192.802 221.915 227.746 221.915 227.746L222.599 232.613L240.127 236.674L251.314 187.711L248.288 158.336Z" fill="#3F3D56"/>
<path d="M289.641 163.549C289.641 163.549 291.478 160.977 301.763 160.58C302.187 160.564 301.662 159.724 301.662 159.724L306.609 135.564L323.094 144.684L320.311 170.013L293.223 200.802L289.641 163.549Z" fill="#3F3D56"/>
<path d="M279.365 235.575C271.605 235.576 259.923 234.72 242.336 232.111C241.204 231.941 240.155 231.412 239.344 230.604C238.533 229.795 238.002 228.749 237.828 227.617C237.254 227.011 236.88 226.243 236.758 225.418C236.636 224.592 236.771 223.749 237.145 223.003L237.161 222.971L236.763 222.502C236.147 221.778 235.785 220.873 235.732 219.924C235.68 218.976 235.94 218.036 236.473 217.249L231.027 178.315C230.474 174.448 231.32 170.512 233.413 167.213C235.505 163.915 238.707 161.47 242.442 160.32L244.453 159.695L252.056 149.757L252.206 149.759L276.614 150.083L284.536 160.135L297.34 163.152L297.373 163.347L300.346 180.512C301.893 189.439 298.346 192.951 293.82 200.802L295.149 222.851L295.751 223.946C296.086 224.551 296.198 225.255 296.068 225.935C295.938 226.614 295.575 227.227 295.041 227.667C295.445 228.82 295.472 230.072 295.12 231.242L294.806 232.276C294.807 232.306 294.723 232.726 294.047 233.239C292.828 234.165 289.328 235.575 279.365 235.575Z" fill="#3F3D56"/>
<path d="M268.618 422.966L281.57 422.193V427.738L293.884 436.237C294.493 436.656 294.951 437.259 295.192 437.958C295.433 438.656 295.444 439.413 295.224 440.118C295.004 440.823 294.564 441.44 293.969 441.877C293.374 442.315 292.654 442.551 291.915 442.551H276.495L273.837 437.066L272.799 442.551H266.985L268.618 422.966Z" fill="#2F2E41"/>
<path d="M282.222 128.1C283.915 117.676 276.83 107.854 266.398 106.162C255.966 104.47 246.137 111.55 244.444 121.974C242.752 132.399 249.836 142.221 260.268 143.912C270.7 145.604 280.529 138.524 282.222 128.1Z" fill="#9E616A"/>
<path d="M274.523 106.352C267.509 101.532 261.333 100.798 256.259 102.165C255.602 101.149 254.679 100.33 253.592 99.798C249.635 89.8349 237.593 83.8515 227.259 86.7601C216.858 89.6875 209.682 101.2 211.639 111.82C212.852 118.402 216.997 124.102 218.665 130.584C221.892 143.133 214.018 157.507 201.701 161.552C213.363 163.892 226.201 156.773 230.385 145.646C232.417 140.241 232.54 134.34 232.798 128.572C232.866 124.591 233.354 120.628 234.254 116.749C234.701 115.009 235.332 113.321 236.137 111.715C237.891 108.184 240.803 105.361 244.388 103.716C244.067 104.708 243.986 105.763 244.153 106.792C244.32 107.821 244.73 108.796 245.349 109.636C242.614 113.06 241.125 116.762 241.125 118.98C235.443 129.357 243.568 138.27 253.953 143.948C258.095 146.224 262.877 147.057 267.546 146.316L267.98 144.463L268.569 146.132L270.534 151.729C272.801 152.825 275.048 154.026 277.275 155.332C276.429 151.361 275.744 147.397 275.273 143.521C274.621 138.246 276.895 130.393 278.535 125.617C279.552 122.674 280.074 119.582 280.079 116.468V116.332L281.676 121.458L287.49 118.98C286.409 112.78 287.49 105.742 274.523 106.352Z" fill="#2F2E41"/>
<path d="M513.633 443.5H88.3669C88.131 443.499 87.9051 443.404 87.7387 443.237C87.5723 443.07 87.4788 442.844 87.4788 442.608C87.4788 442.372 87.5723 442.146 87.7387 441.979C87.9051 441.812 88.131 441.717 88.3669 441.716H513.633C513.869 441.717 514.095 441.812 514.261 441.979C514.428 442.146 514.521 442.372 514.521 442.608C514.521 442.844 514.428 443.07 514.261 443.237C514.095 443.404 513.869 443.499 513.633 443.5Z" fill="#CCCCCC"/>
<path d="M199.932 265.115C209.376 265.115 217.033 257.464 217.033 248.026C217.033 238.588 209.376 230.938 199.932 230.938C190.487 230.938 182.831 238.588 182.831 248.026C182.831 257.464 190.487 265.115 199.932 265.115Z" fill="#E6E6E6"/>
<path d="M457.234 238.205H397.254C395.4 238.203 393.623 237.466 392.312 236.156C391.002 234.847 390.265 233.071 390.262 231.219V198.574C390.265 196.722 391.002 194.946 392.312 193.636C393.623 192.327 395.4 191.59 397.254 191.588H457.234C459.088 191.59 460.865 192.327 462.176 193.636C463.486 194.946 464.223 196.722 464.226 198.574V231.219C464.223 233.071 463.486 234.847 462.176 236.156C460.865 237.466 459.088 238.203 457.234 238.205Z" fill="#F2F2F2"/>
<path d="M458.118 224.945C463.134 224.945 467.2 220.882 467.2 215.87C467.2 210.858 463.134 206.795 458.118 206.795C453.103 206.795 449.037 210.858 449.037 215.87C449.037 220.882 453.103 224.945 458.118 224.945Z" fill="#27AAE1"/>
<path d="M461.889 215.108H458.802V212.022C458.802 211.927 458.783 211.832 458.746 211.744C458.71 211.656 458.656 211.576 458.589 211.509C458.521 211.441 458.441 211.388 458.353 211.351C458.265 211.315 458.17 211.296 458.075 211.296C457.882 211.296 457.697 211.373 457.561 211.509C457.425 211.645 457.348 211.83 457.348 212.022V215.108H454.261C454.068 215.108 453.883 215.184 453.747 215.32C453.611 215.457 453.534 215.641 453.534 215.834C453.534 215.929 453.553 216.024 453.589 216.112C453.626 216.2 453.679 216.28 453.747 216.347C453.814 216.415 453.894 216.468 453.983 216.505C454.071 216.541 454.165 216.56 454.261 216.56H457.348V219.645C457.348 219.741 457.367 219.835 457.404 219.923C457.44 220.011 457.494 220.091 457.561 220.159C457.629 220.226 457.709 220.28 457.797 220.316C457.885 220.353 457.98 220.371 458.075 220.371C458.268 220.371 458.452 220.295 458.589 220.159C458.725 220.023 458.802 219.838 458.802 219.645V216.56H461.889C462.082 216.56 462.267 216.483 462.403 216.347C462.539 216.211 462.616 216.026 462.616 215.834C462.616 215.738 462.597 215.644 462.561 215.556C462.524 215.468 462.471 215.388 462.403 215.32C462.336 215.253 462.256 215.199 462.167 215.163C462.079 215.127 461.985 215.108 461.889 215.108Z" fill="white"/>
<path d="M481.671 228.941H432.241C430.143 228.939 428.132 228.105 426.649 226.622C425.165 225.14 424.331 223.13 424.328 221.034V191.549C424.329 191.163 424.483 190.794 424.756 190.521C425.03 190.249 425.4 190.096 425.786 190.096C426.172 190.096 426.542 190.249 426.816 190.521C427.089 190.794 427.243 191.163 427.244 191.549V199.445L484.659 204.661C485.806 204.681 486.899 205.151 487.704 205.968C488.508 206.785 488.959 207.885 488.96 209.031C488.96 209.121 488.952 209.211 488.935 209.299L486.042 224.719C486.002 225.852 485.524 226.924 484.709 227.712C483.894 228.499 482.805 228.94 481.671 228.941ZM427.244 202.371V221.034C427.246 222.358 427.773 223.627 428.709 224.563C429.646 225.499 430.917 226.026 432.241 226.027H481.671C482.058 226.027 482.428 225.873 482.702 225.6C482.975 225.327 483.129 224.957 483.129 224.57C483.129 224.48 483.137 224.391 483.154 224.302L486.041 208.919C486.012 208.553 485.846 208.211 485.577 207.962C485.307 207.713 484.954 207.575 484.587 207.574C484.543 207.574 484.499 207.572 484.455 207.568L427.244 202.371Z" fill="#27AAE1"/>
<path d="M419.107 242.538C420.449 242.538 421.537 241.451 421.537 240.11C421.537 238.769 420.449 237.682 419.107 237.682C417.765 237.682 416.677 238.769 416.677 240.11C416.677 241.451 417.765 242.538 419.107 242.538Z" fill="#27AAE1"/>
<path d="M479.727 242.538C481.069 242.538 482.157 241.451 482.157 240.11C482.157 238.769 481.069 237.682 479.727 237.682C478.385 237.682 477.298 238.769 477.298 240.11C477.298 241.451 478.385 242.538 479.727 242.538Z" fill="#27AAE1"/>
<path d="M482.157 237.682H417.163C416.776 237.682 416.405 237.528 416.132 237.255C415.859 236.982 415.705 236.611 415.705 236.225C415.705 235.839 415.859 235.468 416.132 235.195C416.405 234.922 416.776 234.768 417.163 234.768H482.157C482.544 234.768 482.915 234.922 483.188 235.195C483.461 235.468 483.615 235.839 483.615 236.225C483.615 236.611 483.461 236.982 483.188 237.255C482.915 237.528 482.544 237.682 482.157 237.682Z" fill="#27AAE1"/>
<path d="M429.674 192.52H417.039C416.653 192.519 416.283 192.366 416.01 192.092C415.737 191.819 415.584 191.449 415.584 191.064C415.584 190.678 415.737 190.308 416.01 190.035C416.283 189.761 416.653 189.608 417.039 189.607H429.674C430.06 189.608 430.43 189.761 430.703 190.035C430.975 190.308 431.128 190.678 431.128 191.064C431.128 191.449 430.975 191.819 430.703 192.092C430.43 192.366 430.06 192.519 429.674 192.52Z" fill="#27AAE1"/>
<path d="M439.81 236.94C439.461 236.94 439.124 236.816 438.86 236.588L429.278 228.36C429.132 228.235 429.013 228.083 428.926 227.912C428.839 227.741 428.787 227.555 428.772 227.364C428.757 227.173 428.781 226.981 428.84 226.799C428.9 226.617 428.995 226.448 429.12 226.303C429.245 226.158 429.397 226.039 429.568 225.952C429.74 225.866 429.926 225.814 430.117 225.8C430.308 225.786 430.5 225.809 430.683 225.869C430.865 225.929 431.033 226.024 431.178 226.15L440.761 234.378C440.986 234.572 441.147 234.831 441.222 235.119C441.296 235.407 441.281 235.711 441.177 235.99C441.074 236.269 440.887 236.51 440.643 236.679C440.398 236.849 440.108 236.94 439.81 236.94Z" fill="#27AAE1"/>
<path d="M441.829 228.046C441.637 228.046 441.448 228.008 441.271 227.935C441.094 227.862 440.933 227.755 440.798 227.619C440.663 227.484 440.555 227.324 440.482 227.147C440.409 226.97 440.371 226.781 440.371 226.589V203.204C440.371 202.817 440.525 202.447 440.798 202.174C441.071 201.9 441.442 201.747 441.829 201.747C442.216 201.747 442.586 201.9 442.86 202.174C443.133 202.447 443.287 202.817 443.287 203.204V226.589C443.287 226.78 443.249 226.97 443.176 227.147C443.103 227.323 442.995 227.484 442.86 227.619C442.725 227.755 442.564 227.862 442.387 227.935C442.21 228.008 442.02 228.046 441.829 228.046Z" fill="#27AAE1"/>
<path d="M472.625 228.046C472.434 228.046 472.244 228.008 472.067 227.935C471.89 227.862 471.73 227.755 471.594 227.619C471.459 227.484 471.352 227.324 471.278 227.147C471.205 226.97 471.167 226.781 471.167 226.589V205.146C471.168 204.76 471.322 204.391 471.595 204.118C471.869 203.846 472.239 203.693 472.625 203.693C473.011 203.693 473.382 203.846 473.655 204.118C473.928 204.391 474.082 204.76 474.083 205.146V226.589C474.083 226.781 474.045 226.97 473.972 227.147C473.899 227.323 473.791 227.484 473.656 227.619C473.521 227.755 473.36 227.862 473.183 227.935C473.006 228.008 472.817 228.046 472.625 228.046Z" fill="#27AAE1"/>
</g>
<defs>
<clipPath id="clip0_40_4819">
<rect width="602" height="443" fill="white" transform="translate(0 0.5)"/>
</clipPath>
</defs>
</svg>
