<svg width="42" height="29" viewBox="0 0 42 29" fill="none" xmlns="http://www.w3.org/2000/svg">
<path d="M5.1875 0C2.82281 0 0.875 1.94781 0.875 4.3125V24.4375C0.875 26.8022 2.82281 28.75 5.1875 28.75H36.8125C39.1772 28.75 41.125 26.8022 41.125 24.4375V4.3125C41.125 1.94781 39.1772 0 36.8125 0H5.1875ZM5.1875 2.875H36.8125C37.6247 2.875 38.25 3.50031 38.25 4.3125V24.4375C38.25 25.2497 37.6247 25.875 36.8125 25.875H5.1875C4.37531 25.875 3.75 25.2497 3.75 24.4375V4.3125C3.75 3.50031 4.37531 2.875 5.1875 2.875ZM25.8961 9.16406C23.1275 9.16406 21.6742 10.5297 21.6742 12.2633C21.6742 15.4014 25.3542 14.9658 25.3542 16.5758C25.3542 16.8533 25.1242 17.4771 23.6004 17.4771C22.0767 17.4771 21.0848 16.9381 21.0848 16.9381L20.6392 19.0081C20.6392 19.0081 21.5807 19.5903 23.4711 19.5903C25.3542 19.5903 28.0049 18.1413 28.0049 16.0396C28.0049 13.5154 24.3206 13.3486 24.3206 12.2231C24.3206 11.6481 24.8094 11.1881 26.1175 11.1881C26.9714 11.1881 27.9144 11.8637 27.9144 11.8637L28.3658 9.66431C28.3658 9.66431 27.1151 9.16838 25.8932 9.16838L25.8961 9.16406ZM14.0827 9.34375L11.6562 16.4421C11.6562 16.4421 11.5355 15.8269 11.4766 15.4531C10.1038 12.3769 7.88281 11.2298 7.88281 11.2298L9.99594 19.2711H12.8709L16.9103 9.34375H14.0856H14.0827ZM17.9453 9.34375L16.3727 19.2711H19.0263L20.5975 9.34375H17.9453ZM32.2312 9.34375L27.9187 19.2711H30.5234L31.0625 17.8796H34.3874L34.6562 19.2711H37.0368L35.0156 9.34375H32.2297H32.2312ZM4.96181 9.38687C4.96181 9.38687 10.1325 10.9753 11.3414 14.8695L10.4459 10.3773C10.4459 10.3773 10.0506 9.38544 9.00838 9.38544H4.96325L4.96181 9.38687ZM33.2188 12.2188L33.9806 15.9476H31.8244L33.2188 12.2188Z" fill="white"/>
</svg>
